<svg xmlns="http://www.w3.org/2000/svg" xmlns:xlink="http://www.w3.org/1999/xlink" viewBox="0,0,256,256" width="192px" height="192px" fill-rule="nonzero"><g fill="none" fill-rule="nonzero" stroke="none" stroke-width="1" stroke-linecap="none" stroke-linejoin="none" stroke-miterlimit="10" stroke-dasharray="" stroke-dashoffset="0" font-family="none" font-weight="none" font-size="none" text-anchor="none" style="mix-blend-mode: normal"><g transform="scale(5.33333,5.33333)"><path d="M34.523,42.65c0.238,0.241 0.538,0.438 0.874,0.479c0.336,0.041 0.708,-0.104 0.866,-0.403c0.114,-0.214 0.106,-0.477 0.028,-0.707c-0.078,-0.23 -0.22,-0.432 -0.369,-0.623c-0.252,-0.323 -0.534,-0.63 -0.878,-0.853c-0.278,-0.18 -0.651,-0.343 -0.991,-0.321c-0.311,0.02 -0.265,0.438 -0.259,0.69c0.017,0.642 0.276,1.28 0.729,1.738z" fill="#fcc419" stroke="none" stroke-linecap="butt" stroke-linejoin="miter"></path><path d="M35.101,16.337l2.966,3.101l0.944,3.91l-1.045,0.978l-0.741,5.09l-1.098,-0.368l-2.282,3.363l-3.362,3.241l-1.247,0.741l1.112,1.82l1.955,1.484l1.669,0.438l0.168,3.084l-11.544,0.303l-2.309,-0.084l0.421,-1.871l1.112,-1.045l-1.348,-0.809l-1.635,-1.853l11.815,-18.354l1.651,-3.034z" fill="#74cccf" stroke="none" stroke-linecap="butt" stroke-linejoin="miter"></path><path d="M28.798,36.848c0.644,0.805 1.201,1.489 1.972,2.174c0.428,0.38 1.173,0.824 1.719,0.994c0.448,0.14 1.055,0.068 1.517,0.152c0.822,0.15 1.23,0.369 1.738,1.033c0.507,0.663 0.537,1.158 0.537,2.153c-1.347,0 -2.716,0.015 -4.044,0.051" fill="none" stroke="#010101" stroke-linecap="round" stroke-linejoin="round"></path><path d="M26.978,5.416l2.157,-0.759l3.236,-0.017l1.314,0.573l1.18,0.574l2.528,5.224l0.068,4.517l-2.292,1.888l-2.023,0.842l-4.348,-0.168l-2.495,-1.112l-1.752,-1.147l-1.349,-2.089l1.652,-5.225z" fill="#74cccf" stroke="none" stroke-linecap="butt" stroke-linejoin="miter"></path><path d="M27.7,34.233c2.646,-1.539 4.864,-3.929 5.831,-6.833c0.966,-2.904 0.481,-6.274 -1.453,-8.646c-1.335,-0.3 -2.67,-0.601 -4.005,-0.901c-0.628,-0.141 -1.265,-0.286 -1.828,-0.597c-0.976,-0.539 -1.761,-1.244 -2.759,-1.742c-1.903,0.28 -3.605,1.364 -5.012,2.675c-1.407,1.311 -2.571,2.857 -3.84,4.302c-0.342,0.39 -0.694,0.774 -0.975,1.21c-0.305,0.473 -0.521,0.996 -0.768,1.501c-0.574,1.173 -1.319,2.256 -1.884,3.433c-0.358,0.746 -0.641,1.525 -0.923,2.302c-0.334,0.919 -0.668,1.838 -1.001,2.758c-0.393,1.081 -0.786,2.164 -1.067,3.279c-0.222,0.882 -0.373,1.781 -0.524,2.678c-0.214,1.274 -0.428,2.547 -0.642,3.821c2.393,-0.645 4.858,-1.054 7.185,-1.908c1.144,-0.42 2.291,-0.841 3.391,-1.366c1.046,-0.499 2.045,-1.09 3.043,-1.68c2.451,-1.449 4.768,-2.854 7.231,-4.286z" fill="#d6e5e5" stroke="none" stroke-linecap="butt" stroke-linejoin="miter"></path><path d="M31.829,18.382c1.851,1.986 2.672,4.884 2.139,7.546c-0.389,1.938 -1.43,3.678 -2.553,5.305c-0.54,0.783 -1.633,1.496 -2.402,2.056c-6.613,4.818 -14.06,8.924 -22.115,10.359c0.341,-3.938 1.276,-7.824 2.762,-11.486c0.727,-1.791 1.584,-3.527 2.442,-5.26c0.546,-1.103 1.095,-2.209 1.763,-3.244c0.67,-1.038 1.456,-1.995 2.239,-2.95c0.984,-1.199 1.977,-2.407 3.177,-3.39c1.2,-0.983 2.708,-1.891 4.983,-1.992" fill="none" stroke="#010101" stroke-linecap="round" stroke-linejoin="round"></path><path d="M40.015,8.604c-0.29,0.07 -0.597,0.071 -0.888,0.003c0.448,0.921 0.806,1.887 1.067,2.878c-0.459,0.055 -0.871,0.001 -1.329,-0.062c0.012,0.534 0.024,1.072 -0.079,1.596c-0.103,0.524 -0.331,1.039 -0.729,1.394c-0.37,0.33 -0.855,0.497 -1.331,0.641c-0.62,0.187 -1.261,0.349 -1.907,0.305c-0.721,-0.049 -1.399,-0.35 -2.046,-0.673c-0.259,-0.129 -0.519,-0.265 -0.735,-0.458c-0.461,-0.411 -0.687,-1.036 -1.106,-1.49c-1.108,1.561 -2.927,2.668 -4.842,2.667c-0.945,0 -1.92,-0.285 -2.598,-0.944c-0.759,-0.738 -1.051,-1.851 -1.037,-2.909c-0.344,0.034 -0.69,0.042 -1.035,0.026c0.001,-1.088 0.377,-2.171 1.048,-3.027c-0.385,-0.018 -0.769,-0.036 -1.154,-0.054c0.819,-1.249 1.957,-2.282 3.391,-2.701c1.434,-0.419 3.066,-0.211 4.273,0.669c1.001,0.73 1.67,1.899 1.789,3.132c0.058,-0.375 0.182,-0.739 0.342,-1.083c0.631,-1.358 1.792,-2.551 3.26,-2.85c0.47,-0.096 0.953,-0.079 1.432,-0.079c2.3,0.001 3.884,1.957 4.214,3.019z" fill="#d6e5e5" stroke="none" stroke-linecap="butt" stroke-linejoin="miter"></path><path d="M29.241,11.076c-0.206,-0.523 -0.547,-1.003 -1.014,-1.316c-0.467,-0.313 -1.066,-0.446 -1.609,-0.298c-0.187,0.051 -0.364,0.133 -0.531,0.23c-0.311,0.179 -0.591,0.411 -0.827,0.681c0.255,0.342 0.495,0.765 0.82,1.04c0.326,0.275 0.719,0.485 1.143,0.531c0.262,0.029 0.529,-0.006 0.784,-0.074c0.348,-0.092 0.993,-0.527 1.234,-0.794z" fill="#f3ad20" stroke="none" stroke-linecap="butt" stroke-linejoin="miter"></path><path d="M35.937,10.549c-0.44,-0.56 -1.231,-0.78 -1.928,-0.63c-0.697,0.15 -1.294,0.628 -1.695,1.217c0.223,0.526 0.713,0.886 1.26,1.052c0.547,0.166 1.165,0.076 1.642,-0.238c0.391,-0.257 0.683,-0.936 0.721,-1.401z" fill="#f3ad20" stroke="none" stroke-linecap="butt" stroke-linejoin="miter"></path><path d="M40.015,8.604c-0.29,0.07 -0.597,0.071 -0.888,0.003c0.448,0.921 0.806,1.887 1.067,2.878c-0.459,0.055 -0.871,0.001 -1.329,-0.062c0.012,0.534 0.024,1.072 -0.079,1.596c-0.103,0.524 -0.331,1.039 -0.729,1.394c-0.37,0.33 -0.855,0.497 -1.331,0.641c-0.62,0.187 -1.261,0.349 -1.907,0.305c-0.721,-0.049 -1.399,-0.35 -2.046,-0.673c-0.259,-0.129 -0.519,-0.265 -0.735,-0.458c-0.461,-0.411 -0.687,-1.036 -1.106,-1.49c-1.108,1.561 -2.927,2.668 -4.842,2.667c-0.945,0 -1.92,-0.285 -2.598,-0.944c-0.759,-0.738 -1.051,-1.851 -1.037,-2.909c-0.344,0.034 -0.69,0.042 -1.035,0.026c0.001,-1.088 0.377,-2.171 1.048,-3.027c-0.385,-0.018 -0.769,-0.036 -1.154,-0.054c0.819,-1.249 1.957,-2.282 3.391,-2.701c1.434,-0.419 3.066,-0.211 4.273,0.669c1.001,0.73 1.67,1.899 1.789,3.132c0.058,-0.375 0.182,-0.739 0.342,-1.083c0.631,-1.358 1.792,-2.551 3.26,-2.85c0.47,-0.096 0.953,-0.079 1.432,-0.079c2.3,0.001 3.884,1.957 4.214,3.019z" fill="none" stroke="#010101" stroke-linecap="round" stroke-linejoin="round"></path><path d="M29.976,13.647c-0.062,-0.131 -0.122,-0.263 -0.158,-0.404c-0.107,-0.417 0.026,-0.897 0.36,-1.168c0.334,-0.272 0.86,-0.293 1.191,-0.018c0.274,0.228 0.383,0.613 0.345,0.967c-0.038,0.355 -0.203,0.683 -0.398,0.982c-0.159,0.242 -0.39,0.713 -0.628,0.863c-0.311,-0.305 -0.525,-0.831 -0.712,-1.222z" fill="#373837" stroke="#010101" stroke-linecap="round" stroke-linejoin="round"></path><path d="M26.691,5.534c0.714,-0.37 1.649,-0.756 2.444,-0.876c0.791,-0.119 1.572,-0.13 2.369,-0.056c1.043,0.098 2.188,0.248 2.963,0.908" fill="none" stroke="#010101" stroke-linecap="round" stroke-linejoin="round"></path><path d="M23.843,14.77c0.809,1.782 2.25,2.516 4.096,3.169c1.382,0.489 2.808,0.623 4.736,0.287c1.16,-0.203 2.125,-0.487 3.101,-1.146c0.976,-0.659 1.752,-1.245 1.921,-2.41" fill="none" stroke="#010101" stroke-linecap="round" stroke-linejoin="round"></path><path d="M29.241,11.076c-0.206,-0.523 -0.547,-1.003 -1.014,-1.316c-0.467,-0.313 -1.066,-0.446 -1.609,-0.298c-0.187,0.051 -0.364,0.133 -0.531,0.23c-0.311,0.179 -0.591,0.411 -0.827,0.681c0.255,0.342 0.495,0.765 0.82,1.04c0.326,0.275 0.719,0.485 1.143,0.531c0.262,0.029 0.529,-0.006 0.784,-0.074c0.348,-0.092 0.993,-0.527 1.234,-0.794z" fill="none" stroke="#010101" stroke-linecap="round" stroke-linejoin="round"></path><path d="M29.816,42.852c0.173,0.2 0.383,0.378 0.635,0.457c0.224,0.07 0.465,0.057 0.698,0.026c0.244,-0.032 0.486,-0.082 0.723,-0.15c0.078,-0.022 0.158,-0.048 0.215,-0.106c0.094,-0.095 0.096,-0.248 0.067,-0.378c-0.047,-0.217 -0.16,-0.414 -0.281,-0.6c-0.299,-0.459 -0.67,-0.882 -1.141,-1.16c-0.336,-0.198 -1.428,-0.634 -1.545,0.006c-0.116,0.645 0.218,1.428 0.629,1.905z" fill="#fcc419" stroke="none" stroke-linecap="butt" stroke-linejoin="miter"></path><path d="M35.937,10.549c-0.44,-0.56 -1.231,-0.78 -1.928,-0.63c-0.697,0.15 -1.294,0.628 -1.695,1.217c0.223,0.526 0.713,0.886 1.26,1.052c0.547,0.166 1.165,0.076 1.642,-0.238c0.391,-0.257 0.683,-0.936 0.721,-1.401z" fill="none" stroke="#010101" stroke-linecap="round" stroke-linejoin="round"></path><path d="M36.093,16.947c1.874,1.823 2.922,4.463 2.81,7.075c-0.27,0 -0.565,0.153 -0.835,0.153c0.088,1.959 -0.338,4.013 -1.112,5.815c-0.284,-0.307 -0.564,-0.618 -0.828,-0.941c-0.521,1.282 -1.363,2.329 -2.283,3.363c-2.121,2.383 -4.666,4.386 -7.481,5.887c0.705,0.676 1.298,1.489 1.986,2.183c0.322,0.016 0.619,0.127 0.941,0.148c0.687,0.044 1.417,0.115 1.957,0.541c0.654,0.516 0.852,1.407 1.008,2.226c-2.244,0.057 -4.51,0.146 -6.755,0.202c-0.464,0.012 -0.927,0.023 -1.391,0.01c-1.193,-0.035 -2.396,-0.236 -3.57,-0.026c-0.065,-0.321 -0.105,-0.638 -0.032,-0.957c0.042,-0.183 0.106,-0.361 0.181,-0.534c0.134,-0.308 0.304,-0.606 0.544,-0.841c0.24,-0.235 0.555,-0.405 0.89,-0.425c-0.812,-0.419 -1.534,-0.933 -2.2,-1.559" fill="none" stroke="#010101" stroke-linecap="round" stroke-linejoin="round"></path><path d="M29.32,41.011c0.065,0.742 0.327,1.466 0.751,2.078" fill="none" stroke="#010101" stroke-linecap="round" stroke-linejoin="round"></path><path d="M33.795,40.553c-0.142,1.017 0.363,2.096 1.234,2.64" fill="none" stroke="#010101" stroke-linecap="round" stroke-linejoin="round"></path><path d="M16.405,26.244c0.515,0.475 1.23,0.727 1.929,0.681c-0.824,0.64 -1.88,0.903 -2.917,1.015c-0.055,0.006 -0.114,0.011 -0.163,-0.015c-0.041,-0.021 -0.069,-0.061 -0.093,-0.101c-0.231,-0.382 -0.242,-0.855 -0.204,-1.3c0.056,-0.653 0.169,-1.462 0.511,-2.027c0.198,0.178 0.197,0.592 0.315,0.865c0.143,0.332 0.356,0.636 0.622,0.882z" fill="#373837" stroke="#010101" stroke-linecap="round" stroke-linejoin="round"></path><path d="M21.003,30.899c-0.476,-0.046 -0.763,-0.046 -1.21,-0.216c-0.447,-0.17 -0.862,-0.478 -1.054,-0.916c-0.183,-0.418 -0.147,-0.908 -0.336,-1.324c-0.625,1.052 -0.855,2.333 -0.633,3.537c1.15,0.004 2.185,-0.606 3.233,-1.081z" fill="#373837" stroke="#010101" stroke-linecap="round" stroke-linejoin="round"></path><path d="M25.073,33.834c-0.583,0.029 -1.173,-0.093 -1.696,-0.351c-0.213,-0.105 -0.418,-0.234 -0.583,-0.405c-0.197,-0.204 -0.33,-0.462 -0.431,-0.727c-0.104,-0.272 -0.005,-0.076 -0.045,-0.365c-0.489,1.062 -0.897,1.772 -0.779,2.935c0.611,0.021 1.145,0.006 1.738,-0.143c0.593,-0.149 1.344,-0.533 1.796,-0.944z" fill="#373837" stroke="#010101" stroke-linecap="round" stroke-linejoin="round"></path><path d="M13.572,29.2c-0.109,0.578 -0.133,1.211 0.164,1.72c0.226,0.386 0.618,0.657 1.04,0.805c0.422,0.148 0.876,0.184 1.323,0.186c-0.962,0.515 -2.043,0.734 -3.134,0.68c-0.634,-2.4 0.374,-3.236 0.607,-3.391z" fill="#373837" stroke="#010101" stroke-linecap="round" stroke-linejoin="round"></path><path d="M12.599,34.083c-0.057,0.445 -0.068,0.9 0.026,1.338c0.094,0.438 0.298,0.861 0.626,1.167c0.445,0.417 1.075,0.583 1.685,0.61c-0.463,0.322 -1.09,0.518 -1.649,0.596c-0.559,0.078 -1.126,0.061 -1.689,0.019c-0.069,-0.679 0.031,-1.353 0.144,-2.026c0.113,-0.673 0.395,-1.201 0.857,-1.704z" fill="#373837" stroke="#010101" stroke-linecap="round" stroke-linejoin="round"></path><path d="M20.063,35.818c-0.434,-0.063 -0.872,-0.126 -1.286,-0.273c-0.414,-0.147 -0.806,-0.386 -1.064,-0.741c-0.332,-0.456 -0.381,-1.066 -0.447,-1.626c-0.762,1.045 -0.992,2.459 -0.6,3.691c0.645,-0.067 1.253,-0.096 1.89,-0.219c0.585,-0.113 1.138,-0.366 1.507,-0.832z" fill="#373837" stroke="#010101" stroke-linecap="round" stroke-linejoin="round"></path><path d="M28.314,9.993c-0.119,0.26 -0.26,0.295 -0.527,0.395c-0.298,0.111 -0.586,0.107 -0.792,-0.135c-0.207,-0.242 -0.378,-0.475 -0.349,-0.792l0.922,0.101z" fill="#373837" stroke="#010101" stroke-linecap="round" stroke-linejoin="round"></path><path d="M33.264,10.245c0.047,0.28 0.148,0.101 0.368,0.281c0.22,0.18 0.549,0.24 0.795,0.098c0.133,-0.077 0.23,-0.203 0.304,-0.337c0.102,-0.185 0.185,0.067 0.205,-0.143" fill="#010101" stroke="#010101" stroke-linecap="round" stroke-linejoin="round"></path></g></g></svg>